<svg width="305" height="91" viewBox="0 0 305 91" fill="none" xmlns="http://www.w3.org/2000/svg">
<path d="M39.784 29.8V38.344H13.768C12.552 38.344 11.528 38.76 10.696 39.592C9.864 40.424 9.448 41.448 9.448 42.664C9.448 43.88 9.864 44.936 10.696 45.832C11.528 46.664 12.552 47.08 13.768 47.08H31.048C32.84 47.08 34.504 47.432 36.04 48.136C37.64 48.776 39.016 49.672 40.168 50.824C41.384 51.976 42.312 53.352 42.952 54.952C43.656 56.488 44.008 58.152 44.008 59.944C44.008 61.736 43.656 63.432 42.952 65.032C42.312 66.568 41.384 67.944 40.168 69.16C39.016 70.312 37.64 71.24 36.04 71.944C34.504 72.584 32.84 72.904 31.048 72.904H5.128V64.36H31.048C32.328 64.36 33.384 63.944 34.216 63.112C35.048 62.28 35.464 61.224 35.464 59.944C35.464 58.728 35.048 57.704 34.216 56.872C33.384 56.04 32.328 55.624 31.048 55.624H13.768C11.976 55.624 10.28 55.304 8.68 54.664C7.144 53.96 5.8 53.032 4.648 51.88C3.496 50.664 2.568 49.288 1.864 47.752C1.224 46.152 0.904 44.456 0.904 42.664C0.904 40.872 1.224 39.208 1.864 37.672C2.568 36.072 3.496 34.696 4.648 33.544C5.8 32.392 7.144 31.496 8.68 30.856C10.28 30.152 11.976 29.8 13.768 29.8H39.784ZM54.9122 36.136C57.0242 34.024 59.3922 32.456 62.0162 31.432C64.7042 30.344 67.4242 29.8 70.1762 29.8C72.9282 29.8 75.6162 30.344 78.2402 31.432C80.9282 32.456 83.3282 34.024 85.4402 36.136L88.4163 39.112L82.4642 45.16L79.3922 42.184C78.1123 40.904 76.6723 39.944 75.0723 39.304C73.4722 38.664 71.8402 38.344 70.1762 38.344C68.5122 38.344 66.8802 38.664 65.2802 39.304C63.6802 39.944 62.2402 40.904 60.9602 42.184C59.6802 43.4 58.7202 44.808 58.0802 46.408C57.4402 48.008 57.1202 49.64 57.1202 51.304C57.1202 52.968 57.4402 54.6 58.0802 56.2C58.7202 57.8 59.6802 59.24 60.9602 60.52C63.5202 63.08 66.5922 64.36 70.1762 64.36C71.9042 64.36 73.5682 64.04 75.1682 63.4C76.7682 62.76 78.1762 61.8 79.3922 60.52L82.4642 57.544L88.4163 63.592L85.4402 66.568C83.3282 68.68 80.9282 70.28 78.2402 71.368C75.6162 72.392 72.9282 72.904 70.1762 72.904C67.4242 72.904 64.7042 72.392 62.0162 71.368C59.3922 70.28 57.0242 68.68 54.9122 66.568C52.8002 64.456 51.2322 62.088 50.2082 59.464C49.1842 56.84 48.6722 54.152 48.6722 51.4C48.6722 48.584 49.1842 45.864 50.2082 43.24C51.2322 40.616 52.8002 38.248 54.9122 36.136ZM115.315 29.8C118.323 29.8 121.107 30.376 123.667 31.528C126.291 32.616 128.595 34.152 130.579 36.136C132.563 38.056 134.099 40.328 135.187 42.952C136.339 45.512 136.915 48.296 136.915 51.304V72.904H128.371V51.304C128.371 49.512 128.019 47.848 127.315 46.312C126.675 44.712 125.747 43.336 124.531 42.184C123.379 40.968 122.003 40.04 120.403 39.4C118.803 38.696 117.107 38.344 115.315 38.344C113.523 38.344 111.827 38.696 110.227 39.4C108.691 40.04 107.315 40.968 106.099 42.184C104.947 43.336 104.019 44.712 103.315 46.312C102.675 47.848 102.355 49.512 102.355 51.304V72.904H93.811V12.52H102.355V34.216C104.147 32.808 106.131 31.72 108.307 30.952C110.547 30.184 112.883 29.8 115.315 29.8ZM141.291 51.496C141.291 48.488 141.835 45.704 142.923 43.144C144.075 40.52 145.611 38.248 147.531 36.328C149.515 34.344 151.819 32.808 154.443 31.72C157.067 30.568 159.851 29.992 162.795 29.992C165.803 29.992 168.587 30.568 171.147 31.72C173.771 32.808 176.075 34.344 178.059 36.328C180.043 38.248 181.579 40.52 182.667 43.144C183.819 45.704 184.395 48.488 184.395 51.496C184.395 54.44 183.819 57.224 182.667 59.848C181.579 62.472 180.043 64.776 178.059 66.76C176.075 68.744 173.771 70.312 171.147 71.464C168.587 72.552 165.803 73.096 162.795 73.096C159.851 73.096 157.067 72.552 154.443 71.464C151.819 70.312 149.515 68.744 147.531 66.76C145.611 64.776 144.075 62.472 142.923 59.848C141.835 57.224 141.291 54.44 141.291 51.496ZM149.739 51.496C149.739 53.288 150.059 54.984 150.699 56.584C151.403 58.184 152.331 59.592 153.483 60.808C154.699 61.96 156.107 62.888 157.707 63.592C159.307 64.232 161.003 64.552 162.795 64.552C164.587 64.552 166.283 64.232 167.883 63.592C169.483 62.888 170.859 61.96 172.011 60.808C173.227 59.592 174.155 58.184 174.795 56.584C175.499 54.984 175.851 53.288 175.851 51.496C175.851 49.704 175.499 48.04 174.795 46.504C174.155 44.904 173.227 43.528 172.011 42.376C170.859 41.16 169.483 40.232 167.883 39.592C166.283 38.888 164.587 38.536 162.795 38.536C161.003 38.536 159.307 38.888 157.707 39.592C156.107 40.232 154.699 41.16 153.483 42.376C152.331 43.528 151.403 44.904 150.699 46.504C150.059 48.04 149.739 49.704 149.739 51.496ZM189.245 12.52H197.789V72.904H189.245V12.52ZM206.817 29.8H215.265V72.904H206.817V29.8ZM249.649 64.36V72.904H245.425C242.481 72.904 239.697 72.36 237.073 71.272C234.449 70.12 232.145 68.552 230.161 66.568C228.177 64.584 226.609 62.28 225.457 59.656C224.369 57.032 223.825 54.248 223.825 51.304V12.52H232.369V38.44H249.649V46.984H232.369V51.304C232.369 53.096 232.689 54.792 233.329 56.392C234.033 57.992 234.961 59.4 236.113 60.616C237.329 61.768 238.737 62.696 240.337 63.4C241.937 64.04 243.633 64.36 245.425 64.36H249.649ZM300.7 29.896C297.116 34.76 293.756 39.432 290.62 43.912C289.276 45.832 287.9 47.784 286.492 49.768C285.084 51.688 283.74 53.576 282.46 55.432C281.18 57.224 279.964 58.92 278.812 60.52C277.66 62.056 276.7 63.368 275.932 64.456H301.564V73H259.228C262.748 68.136 266.108 63.464 269.308 58.984C270.652 57.064 272.028 55.144 273.436 53.224C274.908 51.24 276.284 49.352 277.564 47.56C278.844 45.704 280.06 44.008 281.212 42.472C282.364 40.872 283.324 39.528 284.092 38.44H258.46V29.896H300.7Z" fill="white"/>
<path d="M216 21C216 23.7614 213.761 26 211 26C208.239 26 206 23.7614 206 21C206 18.2386 208.239 16 211 16C213.761 16 216 18.2386 216 21Z" fill="#EA3333"/>
</svg>
