<svg width="227" height="20" viewBox="0 0 227 20" fill="none" xmlns="http://www.w3.org/2000/svg">
<path d="M1.63874 19.0539C1.52355 19.0539 1.40835 19.0404 1.29316 19.0065C0.568121 18.8168 0.134459 18.0785 0.324188 17.3537C1.00857 14.7323 1.78102 11.7654 4.2475 9.11682C6.95792 6.21087 11.5047 4.31421 15.8278 4.28712C18.6466 4.26679 21.1402 4.99157 23.3424 5.62831L41.3735 10.8238C44.7412 11.7924 48.5629 12.8966 52.6285 12.9169C58.9641 12.9372 64.4527 10.5799 70.2598 8.06687C75.2605 5.89926 80.4374 3.66392 86.3055 3.00686C93.7659 2.17369 100.474 4.05681 106.966 5.87217C112.414 7.39627 118.044 8.97455 124.075 8.91359C129.083 8.8594 134.097 7.67399 138.949 6.52245C139.728 6.33956 140.514 6.1499 141.293 5.97378C168.75 -0.380017 198.544 -1.15899 225.187 3.77908C225.926 3.91456 226.407 4.61902 226.271 5.35736C226.136 6.0957 225.424 6.58342 224.693 6.44117C198.408 1.57083 169 2.34303 141.903 8.61554C141.13 8.79166 140.351 8.98132 139.579 9.16422C134.585 10.3496 129.421 11.5757 124.109 11.6299C117.679 11.6908 111.871 10.0651 106.241 8.48684C99.7152 6.65792 93.549 4.93062 86.6171 5.70283C81.1489 6.31247 76.1617 8.47331 71.3439 10.5596C65.5369 13.0727 59.5265 15.6874 52.6217 15.6332C48.1766 15.6061 44.1652 14.4545 40.6281 13.4317L22.5971 8.23621C20.5642 7.65367 18.2875 6.98308 15.8481 7.0034C11.735 7.0305 8.06242 9.0152 6.23966 10.9728C4.24073 13.1201 3.59025 15.6196 2.96008 18.0446C2.80423 18.6543 2.2486 19.0607 1.65231 19.0607L1.63874 19.0539Z" fill="brown"/>
</svg>
