<svg width="71" height="69" viewBox="0 0 71 69" fill="none" xmlns="http://www.w3.org/2000/svg">
<path d="M3.31237 67.8868C3.31237 67.8868 3.29205 67.8868 3.2785 67.8868C2.53313 67.8664 1.93683 67.25 1.95716 66.4981C2.37728 48.5679 1.86907 35.034 0.00565639 14.7804C-0.0621041 14.0353 0.486754 13.3782 1.23212 13.3105C1.97748 13.236 2.63476 13.7915 2.70929 14.5366C4.58626 34.9053 5.10125 48.5205 4.67436 66.5658C4.65403 67.3042 4.05097 67.8868 3.31915 67.8868H3.31237Z" fill="black"/>
<path d="M18.3552 16.1283C10.2511 16.1283 3.56988 16.0471 1.5574 15.9116C0.812031 15.8642 0.242805 15.2207 0.290237 14.4688C0.33767 13.7237 0.981398 13.1547 1.73354 13.2021C6.3277 13.5001 40.6416 13.5475 53.2248 12.7347C53.9701 12.6872 54.6138 13.2495 54.668 14.0014C54.7154 14.7465 54.153 15.39 53.4009 15.4442C45.744 15.9387 30.4572 16.1283 18.3552 16.1283Z" fill="black"/>
<path d="M4.99288 68.5032C4.30172 68.5032 3.71221 67.9748 3.64445 67.2771C3.57669 66.5319 4.11877 65.8748 4.86413 65.8003C8.92298 65.421 17.061 65.394 25.6734 65.3669C37.9922 65.3262 53.3264 65.2788 56.5925 64.046C57.2972 63.7818 58.0765 64.134 58.3407 64.8385C58.605 65.5362 58.2526 66.3219 57.5547 66.5861C53.8346 67.9883 39.5236 68.0357 25.687 68.0831C17.1356 68.1102 9.05851 68.1374 5.12162 68.5032C5.08097 68.5032 5.03353 68.5032 4.99288 68.5032Z" fill="black"/>
<path d="M56.9923 66.803C56.274 66.803 55.6777 66.2408 55.637 65.516C55.183 56.0937 54.7155 47.6265 54.2683 39.4437C53.821 31.2678 53.3603 22.8073 52.8995 13.3918C52.8656 12.6467 53.4416 12.01 54.187 11.9761C54.9323 11.9422 55.5692 12.518 55.6031 13.2631C56.0571 22.6719 56.5179 31.1255 56.9651 39.3014C57.4123 47.4909 57.8799 55.9581 58.3339 65.3872C58.3678 66.1323 57.7918 66.7691 57.0464 66.803C57.0261 66.803 56.999 66.803 56.9787 66.803H56.9923Z" fill="black"/>
<path d="M2.49246 15.0242C2.113 15.0242 1.74035 14.8685 1.46931 14.5637C0.974656 14.0014 1.03564 13.1479 1.59805 12.6534L14.9265 0.982213C15.4889 0.487728 16.3427 0.548652 16.8374 1.11088C17.332 1.6731 17.271 2.52664 16.7086 3.02112L3.38016 14.6923C3.12267 14.9158 2.80419 15.031 2.48571 15.031L2.49246 15.0242Z" fill="black"/>
<path d="M54.065 15.3426C53.6856 15.3426 53.3061 15.1869 53.0418 14.8753C52.554 14.313 52.6082 13.4527 53.1774 12.965L53.855 12.3757C58.1103 8.67722 63.416 4.07786 66.4381 0.718072C66.9395 0.162623 67.7933 0.121964 68.3489 0.616449C68.9045 1.11771 68.952 1.97126 68.4506 2.53348C65.3133 6.01519 59.9399 10.6755 55.6303 14.4214L54.9527 15.0107C54.6952 15.2342 54.3767 15.3426 54.065 15.3426Z" fill="black"/>
<path d="M57.2023 67.2094C56.8703 67.2094 56.5315 67.0874 56.274 66.8368C55.7319 66.322 55.7048 65.4685 56.2198 64.9199C58.6659 62.3323 60.5632 60.2324 62.4063 58.2002C64.2562 56.1613 66.167 54.0479 68.6267 51.44C69.1417 50.8981 69.9955 50.8711 70.5444 51.3859C71.0864 51.9007 71.1135 52.7542 70.5985 53.3028C68.1592 55.8904 66.2551 57.9903 64.4188 60.0157C62.5689 62.0613 60.6581 64.168 58.1916 66.7759C57.9273 67.0604 57.5682 67.2026 57.2091 67.2026L57.2023 67.2094Z" fill="black"/>
<path d="M42.4034 2.91951C34.7465 2.91951 26.351 2.87211 17.2508 2.77051C16.5054 2.76373 15.9023 2.14731 15.9091 1.40219C15.9159 0.657078 16.5257 0.0609992 17.2643 0.0609992H17.2778C37.213 0.27776 53.7872 0.257462 66.5194 5.84771e-05C67.2851 -0.00671529 67.8882 0.575802 67.9017 1.32769C67.9153 2.07958 67.3257 2.69602 66.5736 2.70957C59.6281 2.85181 51.5443 2.91951 42.3967 2.91951H42.4034Z" fill="black"/>
<path d="M69.3653 54.1969C68.6267 54.1969 68.0168 53.6008 68.0101 52.8557C67.7932 33.4624 66.9124 18.8379 65.896 1.90344C65.8485 1.15832 66.4177 0.514819 67.1699 0.467403C67.922 0.42676 68.5589 0.988986 68.6064 1.74087C69.6296 18.7092 70.5104 33.3676 70.7205 52.8219C70.7273 53.567 70.131 54.1834 69.3788 54.1902H69.3653V54.1969Z" fill="black"/>
<path d="M20.5168 66.9993H20.5032C19.7578 66.9993 19.1548 66.3829 19.1616 65.631C19.2971 49.0895 18.633 32.3448 17.183 15.8642C17.1152 15.1191 17.6708 14.4621 18.4162 14.3943C19.1548 14.3266 19.8188 14.882 19.8866 15.6271C21.3435 32.1958 22.0143 49.0218 21.872 65.6514C21.872 66.3965 21.2621 66.9926 20.5168 66.9926V66.9993Z" fill="black"/>
<path d="M38.3242 66.9993H38.3107C37.5653 66.9993 36.9622 66.3829 36.969 65.631C37.1045 49.0895 36.4405 32.3448 34.9904 15.8642C34.9226 15.1191 35.4783 14.4621 36.2236 14.3943C36.9622 14.3266 37.6263 14.882 37.694 15.6271C39.1509 32.1958 39.8217 49.0218 39.6794 65.6514C39.6794 66.3965 39.0696 66.9926 38.3242 66.9926V66.9993Z" fill="black"/>
<path d="M8.14376 33.7943C6.70724 33.7943 5.26394 33.7944 3.82742 33.7741C3.08205 33.7741 2.479 33.1576 2.48577 32.4058C2.48577 31.6606 3.12269 31.051 3.85451 31.0646C20.4016 31.2068 37.152 30.5362 53.6381 29.0866C54.3767 29.0189 55.0408 29.5743 55.1085 30.3194C55.1763 31.0645 54.6207 31.7216 53.8753 31.7893C38.7376 33.1237 23.3763 33.7943 8.15054 33.7943H8.14376Z" fill="black"/>
<path d="M8.83488 50.8846C7.39836 50.8846 5.96859 50.8845 4.53884 50.8642C3.79348 50.8642 3.19042 50.2478 3.1972 49.4959C3.1972 48.7508 3.80704 48.1547 4.55241 48.1547H4.56597C21.1199 48.297 37.8634 47.6263 54.3496 46.1767C55.0882 46.109 55.7522 46.6645 55.82 47.4096C55.8877 48.1547 55.3321 48.8117 54.5867 48.8795C39.4423 50.2139 24.0742 50.8846 8.84166 50.8846H8.83488Z" fill="black"/>
<path d="M55.0678 32.1687C54.6409 32.1687 54.214 31.9655 53.9498 31.5862C53.5229 30.9697 53.6787 30.1298 54.2954 29.703C58.5575 26.7564 62.8061 23.6744 66.9327 20.5517C67.529 20.0978 68.3828 20.2198 68.83 20.8158C69.284 21.4119 69.162 22.2654 68.5657 22.7125C64.412 25.8555 60.1295 28.9579 55.8335 31.9315C55.5964 32.0941 55.3321 32.1755 55.0611 32.1755L55.0678 32.1687Z" fill="black"/>
<path d="M56.0504 49.3808C55.6303 49.3808 55.2169 49.1844 54.9527 48.8254C54.5122 48.2225 54.6478 47.3758 55.2508 46.9355C59.4655 43.8669 63.809 40.8594 68.1728 37.9941C68.7962 37.5877 69.6364 37.757 70.0497 38.3802C70.463 39.0034 70.2869 39.8433 69.6635 40.2565C65.3403 43.0947 61.0308 46.0752 56.85 49.1234C56.606 49.2995 56.3282 49.3808 56.0504 49.3808Z" fill="black"/>
<path d="M19.1615 15.4442C18.816 15.4442 18.4704 15.3156 18.2061 15.0514C17.6776 14.523 17.6776 13.6627 18.2061 13.1344L30.8773 0.447108C31.4058 -0.0812462 32.2664 -0.0812462 32.7949 0.447108C33.3235 0.975462 33.3235 1.83578 32.7949 2.36414L20.1237 15.0514C19.8595 15.3156 19.5139 15.451 19.1615 15.451V15.4442Z" fill="black"/>
<path d="M36.4066 15.9455C36.0475 15.9455 35.6883 15.8033 35.4173 15.5188C34.9023 14.9769 34.9294 14.1166 35.4715 13.6018L48.5289 1.30064C49.071 0.785833 49.9316 0.812981 50.4466 1.35488C50.9615 1.89678 50.9344 2.75702 50.3923 3.27183L37.3349 15.573C37.0707 15.8169 36.7386 15.9387 36.4066 15.9387V15.9455Z" fill="black"/>
<path d="M63.3617 60.3137C62.6706 60.3137 62.0878 59.7922 62.0133 59.0945C60.4074 42.9661 60.0347 26.5668 59.6823 10.6891C59.6146 10.6146 59.5604 10.5265 59.5129 10.4384C59.2351 9.91008 59.33 9.23951 59.7366 8.77212C60.1364 8.31827 60.7597 8.15571 61.3289 8.35893C61.5729 8.44699 62.3521 8.82631 62.3792 9.95753C62.7316 25.991 63.0907 42.5664 64.7102 58.8167C64.7847 59.5618 64.2426 60.2256 63.4973 60.3001C63.4498 60.3001 63.4092 60.3001 63.3617 60.3001V60.3137Z" fill="black"/>
<path d="M59.6213 9.44271H59.601L18.1519 8.90755C15.5838 8.87368 12.9208 8.83988 10.3188 8.97535C9.58023 9.016 8.93648 8.44022 8.89583 7.6951C8.85517 6.94999 9.43114 6.31319 10.1765 6.27255C12.8666 6.1303 15.5702 6.16418 18.1858 6.19804L59.6349 6.7332C60.3802 6.73997 60.9833 7.3564 60.9698 8.10829C60.963 8.84663 60.3532 9.44271 59.6146 9.44271H59.6213Z" fill="black"/>
</svg>
